# xmcd CD database file
#
# Track frame offsets:
#	175
#	15415
#	44855
#	60600
#	92642
#	97192
#	116585
#	134535
#	208252
#	217147
#
# Disc length: 3032 seconds
#
# Revision: 6
# Processed by: cddbd v1.5.2PL0 Copyright (c) Steve Scherf et al.
# Submitted via: CDex 1.97
#
DISCID=9c0bd60a
DTITLE=Son House - Delta Blues And Spirituals
DYEAR=1970
DGENRE=Blues
TTITLE0=Monologue - The B-L-U-E-S
TTITLE1=Between Midnight And Day
TTITLE2=I Want To Go Home On The Morning Train
TTITLE3=Levee Camp Moan
TTITLE4=This Little Light Of Mine
TTITLE5=Monologue - Thinkin' Strong
TTITLE6=Death Letter Blues
TTITLE7=How To Treat A Man
TTITLE8=Grinnin' In Your Face
TTITLE9=John The Revelator
EXTD=YEAR: 1970
EXTT0=
EXTT1=
EXTT2=
EXTT3=
EXTT4=
EXTT5=
EXTT6=
EXTT7=
EXTT8=
EXTT9=
PLAYORDER=
